<?xml version="1.0" encoding="UTF-8"?>
<svg id="Layer_1" xmlns="http://www.w3.org/2000/svg" version="1.1" viewBox="0 0 128 128">
  <!-- Generator: Adobe Illustrator 29.3.1, SVG Export Plug-In . SVG Version: 2.1.0 Build 151)  -->
  <defs>
    <style>
      .st0 {
        fill-rule: evenodd;
      }
    </style>
  </defs>
  <path class="st0" d="M57.46,22.29c0-1.12-.9-2.02-2.02-2.02h-24.25c-1.12,0-2.02.9-2.02,2.02v39.14h-13.37c-2.75,0-4.24,3.22-2.46,5.31l38.64,45.48c1.88,2.21,5.49.88,5.49-2.02v-47.4s-.02-.07-.02-.11V22.29ZM114.65,61.26L76.01,15.78c-1.88-2.21-5.49-.88-5.49,2.02v47.4s.02.07.02.11v40.4c0,1.12.9,2.02,2.02,2.02h24.25c1.12,0,2.02-.9,2.02-2.02v-39.14h13.37c2.75,0,4.24-3.22,2.46-5.31Z"/>
</svg>