<?xml version="1.0" encoding="UTF-8"?>
<svg id="Layer_1" xmlns="http://www.w3.org/2000/svg" version="1.1" viewBox="0 0 128 128">
  <!-- Generator: Adobe Illustrator 29.3.1, SVG Export Plug-In . SVG Version: 2.1.0 Build 151)  -->
  <defs>
    <style>
      .st0 {
        fill-rule: evenodd;
      }
    </style>
  </defs>
  <path class="st0" d="M63.99,42.77s9.69-1.9,19.09-9.29c-.5-4.01-.51-7.99-.11-11.66.03-.26.1-.51.16-.76-1.27-.27-2.63-.53-4.06-.75-.51-.08-.99.23-1.17.71-2.16,5.74-7.57,9.14-13.9,9.14s-11.71-3.38-13.89-9.09c-.19-.5-.7-.81-1.23-.7-1.39.29-2.72.61-3.96.95.03.17.09.33.1.5.4,3.67.39,7.65-.11,11.67,9.4,7.39,19.08,9.29,19.08,9.29ZM39.7,22.4c-.06-.57-.57-.99-1.14-.95C-2.13,23.98,1.7,53.87,2.86,59.78c.11.57.66.94,1.23.84l20.53-3.48c.13-.02.26-.07.38-.14,16.38-9.61,15.22-29.86,14.7-34.6ZM89.43,21.45c-.57-.04-1.08.38-1.14.95-.52,4.74-1.68,24.99,14.7,34.6.12.07.25.12.38.14l20.53,3.48c.57.1,1.12-.27,1.23-.84,1.16-5.91,5-35.8-35.7-38.33ZM100.3,61.62c-8.57-5.02-13.46-12.89-15.83-21.22-10.79,7.81-20.47,9.24-20.47,9.24,0,0-9.67-1.43-20.47-9.24-2.36,8.33-7.26,16.19-15.82,21.21-.68.4-1.42.67-2.2.8h-.04c.54,2.43,3.77,17.67,4.12,37.31,0,.42.25.79.63.96l33.34,14.84c.28.12.59.12.87,0l33.34-14.84c.38-.17.63-.55.63-.97.24-19.64,3.56-34.88,4.12-37.3h-.04c-.77-.14-1.51-.4-2.19-.8Z"/>
</svg>