<?xml version="1.0" encoding="UTF-8"?>
<svg id="Layer_1" xmlns="http://www.w3.org/2000/svg" version="1.1" viewBox="0 0 128 128">
  <!-- Generator: Adobe Illustrator 29.3.1, SVG Export Plug-In . SVG Version: 2.1.0 Build 151)  -->
  <defs>
    <style>
      .st0 {
        fill-rule: evenodd;
      }
    </style>
  </defs>
  <path class="st0" d="M29.12,47.95c-1.31-.1-2.5.73-3.01,1.94-1.15,2.76-2.93,8.07-2.06,12.89.19,1.04.73,1.98,1.47,2.73l9.35,9.43-15.15,17.61c-.68.79-.64,1.96.1,2.7l13.05,13.16c.74.75,1.93.79,2.73.1l13.26-11.61,4.17-3.65,9.31,9.39c.74.75,1.68,1.3,2.72,1.49,4.78.87,10.03-.92,12.76-2.08,1.21-.51,2.02-1.72,1.93-3.04-.82-11.22-16.56-28.43-19.5-31.39-2.94-2.97-20-18.84-31.12-19.67ZM106.62,25.39c-.38-2.15-2.04-3.83-4.18-4.21-6.61-1.18-21.14-3.32-31.09-1.41-.8.15-1.52.57-2.08,1.17-3.18,3.37-14.49,15.45-23.16,25.72-.32.38-.24.92.15,1.21,4.81,3.58,9.13,7.22,12.43,10.16.38.34.94.38,1.37.11l23.26-14.8c.88-.56,1.91.47,1.35,1.35l-14.85,23.34c-.27.43-.23.98.1,1.36,2.96,3.39,6.61,7.82,10.18,12.73.29.4.85.47,1.22.15,10.18-8.75,22.19-20.18,25.54-23.4.59-.57,1.01-1.3,1.16-2.1,1.89-10.04-.23-24.7-1.4-31.37Z"/>
</svg>