<?xml version="1.0" encoding="UTF-8"?>
<svg id="Layer_1" xmlns="http://www.w3.org/2000/svg" version="1.1" viewBox="0 0 128 128">
  <!-- Generator: Adobe Illustrator 29.3.1, SVG Export Plug-In . SVG Version: 2.1.0 Build 151)  -->
  <defs>
    <style>
      .st0 {
        fill-rule: evenodd;
      }
    </style>
  </defs>
  <path class="st0" d="M59.95,92.09c1.17-.5,1.96-1.67,1.87-2.95-.79-10.88-16.06-27.57-18.91-30.45-2.85-2.88-19.4-18.28-30.19-19.08-1.27-.09-2.43.71-2.92,1.89-1.1,2.64-2.8,7.7-2.03,12.33.18,1.07.7,2.05,1.46,2.82l9.06,9.14-3.51,4.08h0s-10.05,11.68-10.05,11.68c-.16.19-.3.39-.42.6-.24.42-.39.87-.46,1.33-.17,1.15.19,2.37,1.06,3.25l10.73,10.82c.28.28.6.5.94.64,1.03.44,2.26.28,3.15-.5l12.12-10.61,4.04-3.54,9.03,9.11c.76.77,1.73,1.29,2.79,1.47,4.59.78,9.61-.93,12.22-2.04ZM41.48,49.46c.32.29.79.32,1.15.09l21.43-13.64c1.14-.73,2.48.61,1.75,1.75l-13.68,21.5c-.23.36-.2.82.08,1.14,2.88,3.3,6.46,7.64,9.95,12.43.28.39.83.46,1.19.15,9.44-8.11,20.48-18.58,24.28-22.22.93-.89,1.55-2.04,1.76-3.31,1.58-9.7-.39-23.33-1.5-29.62-.37-2.09-1.98-3.72-4.05-4.09-6.23-1.11-19.73-3.11-29.35-1.51-1.26.21-2.41.84-3.29,1.77-3.6,3.83-13.96,14.94-22,24.45-.31.37-.24.89.15,1.18,4.7,3.49,8.93,7.07,12.14,9.93ZM97.54,21.53c-.53-.28-1.11.24-.9.8,3.35,8.86,16.52,53.91-48.91,81.82-.56.24-.4,1.07.21,1.07,7.21.08,27.72-.52,41.35-9.04-2.06,6.1-5.16,12.57-10,19.46-.31.44.18,1.01.67.77,6.69-3.31,29.5-16.31,31.21-40.52,3.65,6.82,5.63,14.09,6.38,17.21.14.57.9.67,1.18.16,1.56-2.87,4.82-10,5.36-20.13,1.83-34.29-20.42-48.37-26.54-51.58Z"/>
</svg>