<?xml version="1.0" encoding="UTF-8"?>
<svg id="Layer_1" xmlns="http://www.w3.org/2000/svg" version="1.1" viewBox="0 0 128 128">
  <!-- Generator: Adobe Illustrator 29.3.1, SVG Export Plug-In . SVG Version: 2.1.0 Build 151)  -->
  <defs>
    <style>
      .st0 {
        fill-rule: evenodd;
      }
    </style>
  </defs>
  <path class="st0" d="M108.25,65.99c-2.25-16.93-16.14-28.89-32.26-31.29-4.62-.69-14.81-.72-19.49-.83h-.96c-.1-5.7-.29-10.94-.67-15.54-.12-1.51-1.84-2.32-3.07-1.43-9.5,6.87-20.88,16.22-32.14,28.15-.7.75-.7,1.93,0,2.68,11.28,11.95,22.67,21.32,32.19,28.2,1.23.89,2.95.08,3.07-1.43.36-4.59.55-9.82.64-15.51h.24c3.85.07,13.18-.15,17.01.12,8.25.58,13.51,7.5,12.18,15.75-1.01,6.24-6.88,11.34-13.64,11.5-6.94.16-22.54.04-30.18.07-.49.29-.88.51-1.37.8l-.08.13c-3.42,5.96-3.45,13.27-.08,19.26.28.49.79.8,1.35.8,3.96.03,10.66,0,14.14,0v.04c3.69,0,12.86.06,16.56-.02,5.35-.12,10.55-1.04,15.48-3.24,15.37-6.83,24.11-22.66,21.06-38.21ZM42.4,22.87h0s0,0,0,0h0Z"/>
</svg>