<?xml version="1.0" encoding="UTF-8"?>
<svg id="Layer_1" xmlns="http://www.w3.org/2000/svg" version="1.1" viewBox="0 0 128 128">
  <!-- Generator: Adobe Illustrator 29.3.1, SVG Export Plug-In . SVG Version: 2.1.0 Build 151)  -->
  <defs>
    <style>
      .st0 {
        fill-rule: evenodd;
      }
    </style>
  </defs>
  <path class="st0" d="M30.2,40.56l9.84,10.31,20.37-19.3-10.86-10.29c-1.23-1.16-2.85-1.84-4.54-1.88l-13.83-.39c-1.83-.05-3.32,1.44-3.27,3.26l.39,13.78c.05,1.69.72,3.3,1.89,4.53ZM40.18,74.66l38.32-36.06c.71-.45,1.53.37,1.08,1.08l-35.99,38.25c3.15,3.12,6.12,6.35,8.79,9.57l45.42-47.58c1.17-1.22,1.84-2.84,1.89-4.53l.39-13.78c.05-1.82-1.44-3.31-3.27-3.26l-13.83.39c-1.7.05-3.31.72-4.54,1.88l-48.16,45.65c3.36,2.58,6.69,5.4,9.89,8.37ZM19.64,65.15c-1.28-.57-2.78-.33-3.85.58-1.73,1.48-2.09,1.57-4.54,4.36-1.2,1.37-1.37,3.56-.05,4.81,3.32,3.13,6.61,6.31,9.89,9.5l-11.12,12.77c-.92,1.06-.86,2.64.13,3.63l7.61,7.59c.79.79,2.06.83,2.9.1l13.19-11.41c3.2,3.27,6.39,6.55,9.53,9.87,1.25,1.32,3.45,1.15,4.82-.05,2.8-2.44,2.89-2.8,4.37-4.53.91-1.07,1.16-2.55.58-3.84-5.3-11.87-21.57-28.09-33.47-33.38ZM97.71,66.92l-10.24-9.71-20.68,21.67,8.81,9.23c6.25-7.53,14.12-15.07,22.12-21.19ZM118.02,97.8l-11.12-12.77c3.27-3.19,6.57-6.37,9.89-9.5,1.33-1.25,1.16-3.44-.05-4.81-2.45-2.79-2.81-2.88-4.54-4.36-1.07-.91-2.56-1.15-3.85-.58-.14.06-.28.14-.42.2h0c-11.88,5.43-27.92,21.48-33.17,33.25-.57,1.28-.33,2.77.58,3.84,1.48,1.73,1.57,2.09,4.37,4.53,1.22,1.06,3.08,1.31,4.35.44.21-.13.41-.28.59-.47,3.14-3.32,6.32-6.6,9.53-9.87l13.19,11.41c.84.73,2.11.69,2.9-.1l7.61-7.59c.99-.99,1.05-2.57.13-3.63Z"/>
</svg>