<?xml version="1.0" encoding="UTF-8"?>
<svg id="Layer_1" xmlns="http://www.w3.org/2000/svg" version="1.1" viewBox="0 0 128 128">
  <!-- Generator: Adobe Illustrator 29.3.1, SVG Export Plug-In . SVG Version: 2.1.0 Build 151)  -->
  <defs>
    <style>
      .st0 {
        fill-rule: evenodd;
      }
    </style>
  </defs>
  <path class="st0" d="M104.79,81.1c-4.78-.46-8.51-4.5-8.51-9.41v-23.66c0-17.9-14.45-32.4-32.28-32.4S31.72,30.14,31.72,48.03v23.66c0,4.91-3.73,8.95-8.51,9.41-.52.05-.91.5-.91,1.02v10.29c0,.54.44.98.98.98h29.63c-1.03,1.84-1.62,3.96-1.62,6.22,0,7.04,5.69,12.75,12.71,12.75s12.71-5.71,12.71-12.75c0-2.26-.59-4.38-1.62-6.22h29.63c.54,0,.98-.44.98-.98v-10.29c0-.52-.39-.97-.91-1.02Z"/>
</svg>