<?xml version="1.0" encoding="UTF-8"?>
<svg id="Layer_1" xmlns="http://www.w3.org/2000/svg" version="1.1" viewBox="0 0 128 128">
  <!-- Generator: Adobe Illustrator 29.3.1, SVG Export Plug-In . SVG Version: 2.1.0 Build 151)  -->
  <defs>
    <style>
      .st0 {
        fill-rule: evenodd;
      }
    </style>
  </defs>
  <path class="st0" d="M24.26,92.96L90.07,27.15c-5.92-7.28-14.93-11.94-25.02-11.94-17.83,0-32.28,14.51-32.28,32.4v23.66c0,4.91-3.73,8.95-8.51,9.41-.52.05-.91.5-.91,1.02v10.29c0,.52.4.93.91.97ZM105.84,80.68c-4.78-.46-8.51-4.5-8.51-9.41v-23.66c0-1.93-.18-3.82-.5-5.66l-51.03,51.03h8.16c-1.03,1.84-1.62,3.96-1.62,6.22,0,7.04,5.69,12.75,12.71,12.75s12.71-5.71,12.71-12.75c0-2.26-.59-4.38-1.62-6.22h29.63c.54,0,.98-.44.98-.98v-10.29c0-.52-.39-.97-.91-1.02ZM111.9,16.09c-1.54-1.54-4.04-1.54-5.59,0L16.09,106.32c-1.54,1.54-1.54,4.04,0,5.58,1.54,1.54,4.04,1.54,5.58,0L111.9,21.68c1.54-1.54,1.54-4.04,0-5.58Z"/>
</svg>