<?xml version="1.0" encoding="UTF-8"?>
<svg id="Layer_1" xmlns="http://www.w3.org/2000/svg" version="1.1" viewBox="0 0 128 128">
  <!-- Generator: Adobe Illustrator 29.3.1, SVG Export Plug-In . SVG Version: 2.1.0 Build 151)  -->
  <defs>
    <style>
      .st0 {
        fill-rule: evenodd;
      }
    </style>
  </defs>
  <path class="st0" d="M61.17,95.63h-19.48c-.41,0-.74.33-.74.74v21.97c0,.54.64.82,1.04.46l9.44-8.5,9.44,8.5c.4.36,1.04.08,1.04-.46v-21.97c0-.41-.33-.74-.74-.74ZM100.33,90.39c1.35,0,2.44-1.09,2.44-2.44V19.48c0-1.35-1.09-2.44-2.44-2.44H35.4c-5.62,0-10.17,4.55-10.17,10.17v69.78c0,5.62,4.55,10.17,10.17,10.17h2.4v-7.34h-.52c-2.6,0-4.72-2.11-4.72-4.72s2.11-4.72,4.72-4.72h53.97v9.43h-26.2v7.34h36.25c.81,0,1.47-.66,1.47-1.47v-4.39c0-.81-.66-1.47-1.47-1.47h-1.67v-9.43h.7ZM86.38,54.69l-15.15,4.03c-.63.17-1.13.67-1.28,1.31l-4.7,19.12c-.18.75-1.25.75-1.43,0l-4.7-19.12c-.16-.64-.65-1.14-1.28-1.31l-15.15-4.03c-1.02-.27-1.02-1.72,0-2l15.13-4.02c.65-.17,1.15-.68,1.31-1.33l4.7-19.1c.18-.75,1.25-.75,1.43,0l4.7,19.12c.16.64.65,1.14,1.28,1.31l15.15,4.03c1.02.27,1.02,1.72,0,2Z"/>
</svg>