<?xml version="1.0" encoding="UTF-8"?>
<svg id="Layer_1" xmlns="http://www.w3.org/2000/svg" version="1.1" viewBox="0 0 128 128">
  <!-- Generator: Adobe Illustrator 29.3.1, SVG Export Plug-In . SVG Version: 2.1.0 Build 151)  -->
  <defs>
    <style>
      .st0 {
        fill-rule: evenodd;
      }
    </style>
  </defs>
  <path class="st0" d="M99.62,50.6c-21.6-2.95-38.4-1.1-45.2-.05-1.93.3-3.41,1.87-3.6,3.81l-.1.89c3.37-.05,8.78.27,15.48,2.12,1.84.51,2.92,2.42,2.41,4.26-.51,1.85-2.42,2.93-4.26,2.42-6.61-1.83-11.75-1.96-14.38-1.85l-.43,4.02c3.7.33,8.91,1.18,13.94,3.32,1.76.75,2.58,2.78,1.84,4.55-.75,1.76-2.78,2.59-4.54,1.84-4.21-1.79-8.65-2.5-11.79-2.79l-.16-.14s-8.89-3.83-22.27,4.38c-10.64,6.53-11.69,18.82-11.13,26.57.28,3.93,3.55,6.97,7.49,6.97h70.97c5.79,0,10.45-4.76,10.34-10.55l-.89-45.61c-.04-2.11-1.62-3.88-3.71-4.16ZM107.48,19.26c-29.51-4.11-52.39-1.41-60.71-.09-1.92.3-3.27,2.05-3.1,3.99l1.45,16.48c.29,3.33,3.3,5.75,6.61,5.3,8.49-1.16,25.77-2.52,50.98.32,3.3.37,6.23-2,6.52-5.31l1.47-16.68c.17-1.98-1.24-3.74-3.21-4.01Z"/>
</svg>