<?xml version="1.0" encoding="UTF-8"?>
<svg id="Layer_1" xmlns="http://www.w3.org/2000/svg" version="1.1" viewBox="0 0 128 128">
  <!-- Generator: Adobe Illustrator 29.3.1, SVG Export Plug-In . SVG Version: 2.1.0 Build 151)  -->
  <defs>
    <style>
      .st0 {
        fill-rule: evenodd;
      }
    </style>
  </defs>
  <path class="st0" d="M115.8,19.96c-.54-.13-1.1.1-1.41.56-1.88,2.81-9.31,13-21.67,18.64-6.88-2.26-16.23-4.02-28.72-4.02h0s0,0,0,0c0,0,0,0,0,0h0c-12.49,0-21.84,1.76-28.72,4.02-12.36-5.64-19.79-15.83-21.67-18.64-.31-.46-.87-.69-1.41-.56-2.7.63-9.62,4.25-9.58,14.55.06,15.23,9.41,24.13,17.08,28.86.63,6.8,1.45,14.66,2.32,20.32.49,3.19,3.07,5.63,6.28,5.91,2.35.21,5.38.46,8.76.71l.82,16.3c.04.82.72,1.46,1.53,1.46h10.53c.55,0,.99-.46.97-1.01l-.43-10.77c-.07-1.8,1.33-3.32,3.13-3.39l.73-.03c1.8-.07,3.32,1.33,3.39,3.13l.45,11.14c.02.52.45.93.97.93h9.73c.52,0,.95-.41.97-.93l.45-11.14c.07-1.8,1.59-3.2,3.39-3.13l.73.03c1.8.07,3.2,1.59,3.13,3.39l-.43,10.77c-.02.55.42,1.01.97,1.01h9.24c.78,0,1.44-.58,1.53-1.36l1.92-16.39c3.47-.26,6.56-.51,8.96-.72,3.21-.28,5.79-2.72,6.28-5.91.87-5.67,1.69-13.52,2.32-20.32,7.67-4.74,17.01-13.63,17.08-28.86.04-10.3-6.89-13.93-9.58-14.55ZM53.29,81.11c-1.98,1.98-5.2,1.98-7.18,0l-16.24-16.24c-1.98-1.98-1.98-5.2,0-7.18,1.98-1.98,5.2-1.98,7.18,0l16.24,16.24c1.98,1.98,1.98,5.2,0,7.18ZM98.13,64.87l-16.24,16.24c-1.98,1.98-5.2,1.98-7.18,0-1.98-1.98-1.98-5.2,0-7.18l16.24-16.24c1.98-1.98,5.2-1.98,7.18,0,1.98,1.98,1.98,5.2,0,7.18Z"/>
</svg>