<?xml version="1.0" encoding="UTF-8"?>
<svg id="Layer_1" xmlns="http://www.w3.org/2000/svg" version="1.1" viewBox="0 0 128 128">
  <!-- Generator: Adobe Illustrator 29.3.1, SVG Export Plug-In . SVG Version: 2.1.0 Build 151)  -->
  <defs>
    <style>
      .st0 {
        fill-rule: evenodd;
      }
    </style>
  </defs>
  <path class="st0" d="M108.94,17.84l-26.98,2.42c-1.77.16-2.89,1.96-2.25,3.62l4.66,12.04-3.36,3.36c-5.69-5.08-15.87-12.31-27.7-12.31-4.38,0-8.94,2.44-12.47,4.96-4.02,2.86-9.52,2.38-13.08-1.05l-3.31-3.2c-1.12-1.08-2.96-.82-3.73.53l-4.21,7.38c-1.18,2.07-.83,4.67.85,6.35l8.56,8.56v49.68c0,2.14,1.74,3.88,3.88,3.88h49.68l8.56,8.56c1.68,1.68,4.28,2.03,6.35.85l7.38-4.21c1.35-.77,1.62-2.61.53-3.73l-3.2-3.31c-3.43-3.55-3.91-9.05-1.05-13.07,2.52-3.53,4.96-8.09,4.96-12.47,0-11.83-7.23-22.01-12.31-27.7l3.36-3.36,12.03,4.66c1.65.64,3.46-.48,3.62-2.25l2.42-26.98c.16-1.84-1.38-3.38-3.21-3.21ZM33.69,55.54c2.76-2.86,9.48-9.28,15.86-11.25,6.28-1.94,14.58,1.21,20.91,5.54l-36.77,36.77v-31.06ZM85.71,80.45c-1.97,6.38-8.39,13.1-11.25,15.86h-31.06l36.77-36.77c4.33,6.34,7.48,14.63,5.54,20.91Z"/>
</svg>