<?xml version="1.0" encoding="UTF-8"?>
<svg id="Layer_1" xmlns="http://www.w3.org/2000/svg" version="1.1" viewBox="0 0 128 128">
  <!-- Generator: Adobe Illustrator 29.3.1, SVG Export Plug-In . SVG Version: 2.1.0 Build 151)  -->
  <defs>
    <style>
      .st0 {
        fill-rule: evenodd;
      }
    </style>
  </defs>
  <path class="st0" d="M115.37,61.04l-15.75-7.72c-3.58-11.94-12.99-21.36-24.94-24.94l-7.72-15.75c-1.2-2.46-4.71-2.46-5.91,0l-7.72,15.75c-11.94,3.58-21.36,12.99-24.94,24.94l-15.75,7.72c-2.46,1.2-2.46,4.71,0,5.91l15.75,7.72c3.58,11.94,12.99,21.36,24.94,24.94l7.72,15.75c1.2,2.46,4.71,2.46,5.91,0l7.72-15.75c11.94-3.58,21.36-12.99,24.94-24.94l15.75-7.72c2.46-1.2,2.46-4.71,0-5.91ZM87.65,66.44l-13.85,7.36-7.36,13.85c-.95,1.79-3.51,1.79-4.47.01l-7.31-13.61-14.56-7.82c-1.78-.96-1.78-3.52.01-4.47l14.14-7.51,7.51-14.14c.95-1.79,3.51-1.79,4.47-.01l7.82,14.56,13.61,7.31c1.78.96,1.78,3.52-.01,4.47Z"/>
</svg>