<?xml version="1.0" encoding="UTF-8"?>
<svg id="Layer_1" xmlns="http://www.w3.org/2000/svg" version="1.1" viewBox="0 0 128 128">
  <!-- Generator: Adobe Illustrator 29.3.1, SVG Export Plug-In . SVG Version: 2.1.0 Build 151)  -->
  <defs>
    <style>
      .st0 {
        fill-rule: evenodd;
      }
    </style>
  </defs>
  <path class="st0" d="M32.51,100.18c2.31-30.34,6.1-55.35,12.19-80.26-10.24.9-20.86,2.17-31.47,4.15-1.76.34-3.39,2.28-3.36,4,.56,26.06,3.52,51.18,9.6,81.42.35,1.72,2.3,3.24,4.02,3.15,7.7-.37,14.88-.84,21.67-1.4-1.78-.39-3.57-.8-5.39-1.22-4.32-1-7.57-5.42-7.25-9.84ZM115.96,23.56c-17.9-4.09-38.8-8.62-60.27-10.55-.08,0-.17-.01-.25-.01-1.67,0-3.53,1.32-3.93,2.85-6.82,26.4-10.95,52.54-13.4,84.72-.12,1.66,1.3,3.6,2.91,3.98,23.52,5.4,42.7,8.72,60.34,10.44,1.57.14,3.42-1.26,3.82-2.91,6.64-27.84,10.66-53.16,13.43-84.65.14-1.66-1.13-3.52-2.65-3.87ZM97.73,105.89c-15.05-1.67-31.2-4.5-50.64-8.86,2.32-28.3,5.97-51.51,11.8-75.01,17.84,1.88,35.56,5.56,50.7,8.97-2.56,27.35-6.23,50.53-11.85,74.89ZM93.77,100.29c4.72-21.22,7.95-41.71,10.3-65.29-12.55-2.77-26.77-5.63-41.29-7.39-4.86,20.55-8.07,41.07-10.23,65.41,15.47,3.37,28.77,5.71,41.22,7.27ZM68.66,61.71c4.37-2.88,8.36-7.41,11.6-13.14.31-.55,1.15-.41,1.26.21,1.2,6.47,3.5,12.06,6.7,16.2.31.4.22.97-.21,1.25-4.37,2.88-8.36,7.41-11.6,13.14-.31.55-1.14.41-1.26-.21-1.2-6.47-3.5-12.06-6.7-16.2-.31-.4-.22-.97.21-1.25Z"/>
</svg>