<?xml version="1.0" encoding="UTF-8"?>
<svg id="Layer_1" xmlns="http://www.w3.org/2000/svg" version="1.1" viewBox="0 0 128 128">
  <!-- Generator: Adobe Illustrator 29.3.1, SVG Export Plug-In . SVG Version: 2.1.0 Build 151)  -->
  <defs>
    <style>
      .st0 {
        fill-rule: evenodd;
      }
    </style>
  </defs>
  <path class="st0" d="M96.16,21.71H31.84c-9.38,0-16.99,7.61-16.99,16.99v40.05c0,9.38,7.61,16.99,16.99,16.99h31.51l11.74,13.24c1.54,1.73,4.21,1.73,5.75,0l11.74-13.24h3.59c9.38,0,16.99-7.61,16.99-16.99v-40.05c0-9.38-7.61-16.99-16.99-16.99ZM39.11,66.62c-4.7,0-8.5-3.8-8.5-8.49s3.81-8.49,8.5-8.49,8.5,3.8,8.5,8.49-3.81,8.49-8.5,8.49ZM63.4,66.63c-4.69,0-8.48-3.81-8.48-8.51s3.8-8.51,8.48-8.51,8.48,3.81,8.48,8.51-3.8,8.51-8.48,8.51ZM88.28,67.84c-5.02,0-9.09-4.08-9.09-9.12s4.07-9.11,9.09-9.11,9.09,4.08,9.09,9.11-4.07,9.12-9.09,9.12Z"/>
</svg>