<?xml version="1.0" encoding="UTF-8"?>
<svg id="Layer_1" xmlns="http://www.w3.org/2000/svg" version="1.1" viewBox="0 0 128 128">
  <!-- Generator: Adobe Illustrator 29.3.1, SVG Export Plug-In . SVG Version: 2.1.0 Build 151)  -->
  <defs>
    <style>
      .st0 {
        fill-rule: evenodd;
      }
    </style>
  </defs>
  <path class="st0" d="M114.53,30.79c-4.78-5.14-11.16-7.56-15.24-8.36-1.81-.35-3.7-.16-5.33.68-20.14,10.43-40.34,36.05-40.34,36.05-10.17-11.38-19.23-14.84-22.9-15.56-.99-.2-2.01-.21-3.01-.05-7.27,1.2-12.24,5.61-14.56,9.13-.94,1.43-.76,3.33.42,4.57,15.14,15.93,33.16,37.29,41.1,46.84,1.98,2.38,5.71,2.16,7.39-.44,13.14-20.36,44.37-58.48,52.43-68.09,1.21-1.44,1.32-3.39.04-4.77Z"/>
</svg>