<?xml version="1.0" encoding="UTF-8"?>
<svg id="Layer_1" xmlns="http://www.w3.org/2000/svg" version="1.1" viewBox="0 0 128 128">
  <!-- Generator: Adobe Illustrator 29.3.1, SVG Export Plug-In . SVG Version: 2.1.0 Build 151)  -->
  <defs>
    <style>
      .st0 {
        fill-rule: evenodd;
      }
    </style>
  </defs>
  <path class="st0" d="M102,88.93H26c-1.25,0-2.27,1.02-2.27,2.27v11.46c0,1.25,1.02,2.27,2.27,2.27h76.01c1.25,0,2.27-1.02,2.27-2.27v-11.46c0-1.25-1.02-2.27-2.27-2.27ZM116.74,49.67l-10.46-1.22c-1.13-.13-2.2.48-2.72,1.5-2.79,5.52-8.5,9.32-15.11,9.32-9.08,0-16.47-7.15-16.89-16.12,0-5.12,3.47-10.07,5.4-12.43.53-.65.19-1.6-.63-1.81-6.22-1.58-9.64-6.26-11.23-9.17-.48-.88-1.74-.88-2.22,0-1.58,2.91-5.01,7.59-11.23,9.17-.81.21-1.16,1.16-.63,1.81,1.93,2.36,5.4,7.32,5.4,12.43-.43,8.97-7.82,16.12-16.89,16.12-6.61,0-12.32-3.79-15.11-9.32-.51-1.02-1.58-1.64-2.72-1.5l-10.46,1.22c-1.2.14-1.91,1.4-1.42,2.5l13.14,29.35c.45,1.01,1.46,1.66,2.56,1.66h76.9c1.11,0,2.11-.65,2.56-1.66l13.14-29.35c.49-1.1-.22-2.36-1.42-2.5Z"/>
</svg>