<?xml version="1.0" encoding="UTF-8"?>
<svg id="Layer_1" xmlns="http://www.w3.org/2000/svg" version="1.1" viewBox="0 0 128 128">
  <!-- Generator: Adobe Illustrator 29.3.1, SVG Export Plug-In . SVG Version: 2.1.0 Build 151)  -->
  <defs>
    <style>
      .st0 {
        fill-rule: evenodd;
      }
    </style>
  </defs>
  <path class="st0" d="M107.73,32.39c0-1.65-1.08-3.1-2.65-3.57l-40-12.03c-.7-.21-1.45-.21-2.15,0l-40,12.03c-1.58.47-2.65,1.92-2.65,3.57v19.6c0,.14,0,.28,0,.42,0,32.02,17.28,48.82,41.47,58.52,1.45.58,3.08.58,4.53,0,24.19-9.7,41.47-26.5,41.47-58.52,0-.14,0-.28,0-.42v-.09s0-19.5,0-19.5ZM59.54,97.82c0,.2-.21.33-.39.24-16.38-8.15-25.16-19.57-27.52-35.94-.02-.16.1-.31.26-.31h27.38c.15,0,.26.12.26.26v35.74ZM97.03,51.53v.33s0,.09,0,.09v.09s0,.32,0,.32v.05c0,3.22-.2,6.27-.59,9.18-.02.13-.13.23-.26.23h-27.45c-.15,0-.26-.12-.26-.26V29.34c0-.18.17-.3.34-.25l28.04,8.43c.11.03.19.14.19.25v13.75Z"/>
</svg>