<?xml version="1.0" encoding="UTF-8"?>
<svg id="Layer_1" xmlns="http://www.w3.org/2000/svg" version="1.1" viewBox="0 0 128 128">
  <!-- Generator: Adobe Illustrator 29.3.1, SVG Export Plug-In . SVG Version: 2.1.0 Build 151)  -->
  <defs>
    <style>
      .st0 {
        fill-rule: evenodd;
      }
    </style>
  </defs>
  <path class="st0" d="M97.71,48.71H30.29c-1.03,0-1.84.86-1.79,1.9l2.78,53.15c.25,5.02,4.37,8.97,9.37,8.97h46.7c5,0,9.12-3.94,9.37-8.97l2.78-53.15c.05-1.03-.77-1.9-1.79-1.9ZM96.83,24.93h-16.52l-1.67-4.65c-1.08-3-3.91-5-7.09-5h-15.1c-3.17,0-6.01,2-7.09,5l-1.67,4.65h-16.52c-5.32,0-9.62,4.33-9.62,9.68v4.44c0,1.03.84,1.87,1.87,1.87h81.18c1.03,0,1.86-.83,1.86-1.86v-4.45c0-5.35-4.31-9.68-9.62-9.68Z"/>
</svg>