<?xml version="1.0" encoding="UTF-8"?>
<svg id="Layer_1" xmlns="http://www.w3.org/2000/svg" version="1.1" viewBox="0 0 128 128">
  <!-- Generator: Adobe Illustrator 29.3.1, SVG Export Plug-In . SVG Version: 2.1.0 Build 151)  -->
  <path d="M64,14c-27.6,0-50,22.4-50,50s22.4,50,50,50,50-22.4,50-50S91.6,14,64,14ZM21.3,64c0-4.1.6-8.1,1.7-11.9.3,0,.5.2.7.2.2.6.6,2.2,1.2,4.9.7,3.5,2.7,6.2,5.3,7.1,1.5.5,4.2,1.7,5.6,2.3.1,0,.2.2.3.3,0,.1,0,.3,0,.4-.5,1-1.1,2.6-1.6,4.8-.8,3.5,0,4.7.8,5.7l.2.3c.7,1,3.3,3.9,5.1,5.4,1.5,1.3,1.6,3.3,1.5,4.6-.1,1.4-.6,7.9-.6,9.2,0,1.5.2,2.2.6,3,0,.1.2.3.3.5-12.5-7.4-21-21.1-21-36.7ZM55.5,105.9c2-5,4.9-12.5,5.4-13.8,1.3-.8,4.9-3.1,6.4-4.1.4-.3.7-.6.9-1.1.8-1.8,1.9-5.3,2.3-6.7.2-.7.1-1.4-.2-2.1-4.5-7.7-13.4-14.1-15.1-15.2-.4-.2-.8-.3-1.2-.4-2.5,0-8.8.7-10.7.9-.3,0-.7,0-.9-.2-1.3-.8-5.8-3.3-7-4.6-1.1-1.2-1-2.7.4-4.9.8-1.2,2.6-1.4,3.4-1.4,0,.8,0,2.4,0,3.8,0,2.3,2.1,4.2,4.1,4.6.9.2,1.6,0,2.1-.4.5-.5.7-1.2.6-2l-.3-2.6c0-.8.1-1.6.6-2.3.6-.9,8-7.2,14.2-12.3.1,0,.3-.1.4-.1.8.2,2.4.4,3.7.4,2,0,3-.6,3.7-2,.7-1.4-.4-2.9-1-3.7-.1-.2-.5-.6-5.7-4.4-.2-.1-.1-.3-.1-.3,0,0,0-.2.3-.3,1.7-.3,4-.6,5.2-.8,1.3-.2,2.3-.8,2.9-1.7.5-.7.6-1.4.5-2.2-.3-1.8-2.9-2.5-5.2-2.4-1.7,0-6.4.3-7.8.4-.6,0-1.2.2-1.8.5-1.5.7-4.8,2.4-5.7,2.8-.3.1-.6.1-.9,0-.5-.2-.9-.7-1-1.1-.1-.5-.3-1.1-.5-1.7,5.1-2.1,10.6-3.3,16.4-3.3s10.8,1.1,15.6,3c0,1.2.3,2.2.6,2.9.5,1.2.6,2.6.4,3.9-.3,1.9-.5,4.4.8,5.2,3,1.8,4.7.8,6-.2l4.3-4.4c1.1,1,2.2,2,3.2,3-.4.3-.8.7-1.2,1.2-1.1,1.4-.7,5-1.3,5.8-.6.8-1.7,2.2-3.8,2.4-2.1.2-4.6,0-5.4,2.5-.8,2.5-.3,3.8,2.7,4.9s4.7.8,6.1-.3,1.5-2.4,3.6-2c1.7.4,7,2,9.2,2.7,1,3.5,1.6,7.2,1.7,11.1-1.3.4-3.5,1-4.4,1.3-1.4.4-2.3.9-4.2-.7s-4.3-3.8-6.3-4.2-6.3-1.4-8.4-.4c-2.1,1-4.7,5.8-5.1,8.5-.4,2.7,1.2,6.9,3.8,9.1s4.9,1.9,6,1.9c1.2,0,3.6,0,3.1,3.3-.5,3.3-1.6,6.9-1.1,9.1.3,1.3,1,3.5,1.8,5.5-7.5,6.5-17.2,10.4-27.9,10.4s-5.8-.3-8.5-.9Z"/>
</svg>