<?xml version="1.0" encoding="UTF-8"?>
<svg id="Layer_1" xmlns="http://www.w3.org/2000/svg" version="1.1" viewBox="0 0 128 128">
  <!-- Generator: Adobe Illustrator 29.3.1, SVG Export Plug-In . SVG Version: 2.1.0 Build 151)  -->
  <defs>
    <style>
      .st0 {
        fill-rule: evenodd;
      }
    </style>
  </defs>
  <path class="st0" d="M113.99,16.78c-12.98,1.47-37.99,11.79-55.07,27.19-12.87,12.24-17.52,24.52-19.21,31.71-5.58.83-9.87,5.63-9.87,11.44,0,1.23.2,2.41.55,3.53l-17.95,17.97c-.7.7-.42,1.9.52,2.2,2.04.64,5.55.91,9.62-2.16,3.68-2.77,8.29-6.92,13.07-11.49,1.7.98,3.66,1.54,5.76,1.54,4.89,0,9.06-3.03,10.76-7.31,12.44-1.82,26.26-10.77,34.91-18.33,1.24-1.08,1.96-2.17.59-3.46l-7.54-6.61,15.26.23.22-.02c1.43-.03,2.54-.92,3.37-1.97,13.62-17.01,16.39-35.55,16.93-42.58.09-1.16-.79-2.03-1.95-1.9Z"/>
</svg>