<?xml version="1.0" encoding="UTF-8"?>
<svg id="Layer_1" xmlns="http://www.w3.org/2000/svg" version="1.1" viewBox="0 0 128 128">
  <!-- Generator: Adobe Illustrator 29.3.1, SVG Export Plug-In . SVG Version: 2.1.0 Build 151)  -->
  <defs>
    <style>
      .st0 {
        fill-rule: evenodd;
      }
    </style>
  </defs>
  <path class="st0" d="M100.51,45.58s-7.15,6.16-10.17,7.63c0,0,3.5-30.34-25.44-35.61-13.4-2.44-21.13,3.86-22.89,6.36,0,0,9.46,5.98,8.9,17.81-.55,11.82-8.9,13.99-8.9,13.99,0,0-7.99-4.94-7.63-15.26,0,0-17.81,3.56-17.81,30.52s24.28,40.7,47.06,40.7,46.43-12.8,47.06-39.43c.52-22.11-10.17-26.71-10.17-26.71ZM90.25,86.52c-.81,8.18-5.42,21.16-27.03,21.16s-25.77-19.51-25.86-24.68c-.09-5.17.86-16.34,11.75-21.16,0,0,2.19,4.43,4.7,8.23,0,0,11.19-5.21,7.05-19.98,0,0,20.66.8,18.8,28.21,0,0,4.92-.88,7.05-4.7,0,0,4.34,4.75,3.53,12.93Z"/>
</svg>