<?xml version="1.0" encoding="UTF-8"?>
<svg id="Layer_1" xmlns="http://www.w3.org/2000/svg" version="1.1" viewBox="0 0 128 128">
  <!-- Generator: Adobe Illustrator 29.3.1, SVG Export Plug-In . SVG Version: 2.1.0 Build 151)  -->
  <defs>
    <style>
      .st0 {
        fill-rule: evenodd;
      }
    </style>
  </defs>
  <path class="st0" d="M91.8,53.76c.73-15.35,4.23-29.55,6.33-36.9.63-2.18-1.55-4.11-3.65-3.25-22.31,9.18-36.85,24.18-45.94,37.21-23.84,3.85-41.32,16.39-41.32,31.28,0,17.95,25.42,32.5,56.78,32.5s56.78-14.55,56.78-32.5c0-12.17-11.68-22.77-28.97-28.34ZM95.05,82.54c-2.87,2.84-13.25,11.34-33.44,9.96-19.79-1.36-26.46-9.37-28.23-12.23-.36-.59-.38-1.32-.06-1.93l4.92-9.34s5.7,10.66,23.76,12.07c18.06,1.41,30.4-9.5,30.4-9.5l3.11,8.95c.24.7.07,1.49-.46,2.01Z"/>
</svg>