<?xml version="1.0" encoding="UTF-8"?>
<svg id="Layer_1" xmlns="http://www.w3.org/2000/svg" version="1.1" viewBox="0 0 128 128">
  <!-- Generator: Adobe Illustrator 29.3.1, SVG Export Plug-In . SVG Version: 2.1.0 Build 151)  -->
  <defs>
    <style>
      .st0 {
        fill-rule: evenodd;
      }
    </style>
  </defs>
  <path class="st0" d="M116.46,55.09c-6.36-14.59-17.73-25.76-23.42-30.73-2.08-1.82-4.99-2.35-7.52-1.27-10.56,4.52-21.24,12.49-21.5,12.68-.26-.19-10.94-8.16-21.5-12.68-2.53-1.08-5.44-.55-7.52,1.27-5.7,4.98-17.12,16.2-23.47,30.85-.6,1.39-.44,2.99.37,4.27,4.72,7.4,22.35,32.9,49.5,47.34,1.63.87,3.6.89,5.24.03,24.23-12.69,44-39.61,49.34-47.33.9-1.3,1.1-2.98.47-4.43Z"/>
</svg>