<?xml version="1.0" encoding="UTF-8"?>
<svg id="Layer_1" xmlns="http://www.w3.org/2000/svg" version="1.1" viewBox="0 0 128 128">
  <!-- Generator: Adobe Illustrator 29.3.1, SVG Export Plug-In . SVG Version: 2.1.0 Build 151)  -->
  <defs>
    <style>
      .st0 {
        fill-rule: evenodd;
      }
    </style>
  </defs>
  <path class="st0" d="M111.43,51.08h-6.79c-3.81-15.87-16.71-28.2-32.9-31.22l.11-3.74c.09-1.41-1.04-2.61-2.46-2.61h-11.78c-1.43,0-2.56,1.2-2.46,2.61l.11,3.75c-16.16,3.04-29.02,15.36-32.83,31.21h-5.63c-.64,0-1.16.52-1.16,1.16v6.03c0,3.18,2.49,5.77,5.63,5.94v25.38c0,1.62-2.37,3.3-3.74,4.14-.45.28-.49.92-.08,1.25l13.21,10.57v-.05s10.94,8.7,10.94,8.7c.83.66,2.04.07,2.04-.99v-34.9c0-.3-.17-.57-.44-.71-7.36-3.8-9.54-9.57-10.13-13.38h23.47l.18,6.16c.03.51.23.98.53,1.35l5.66,5.92c.34.35.91.35,1.24,0l5.59-5.92c.3-.38.49-.84.53-1.35l.18-6.16h23.64c-.44,3.94-2.46,9.92-10.19,13.37-.29.13-.48.41-.48.73v34.9c0,1.05,1.22,1.64,2.04.99l10.95-8.7v.04s13.2-10.57,13.2-10.57c.42-.33.37-.97-.08-1.25-1.37-.84-3.73-2.52-3.74-4.15v-25.36h.4c3.41,0,6.18-2.77,6.18-6.18v-6.03c0-.52-.42-.94-.94-.94Z"/>
</svg>