<?xml version="1.0" encoding="UTF-8"?>
<svg id="Layer_1" xmlns="http://www.w3.org/2000/svg" version="1.1" viewBox="0 0 128 128">
  <!-- Generator: Adobe Illustrator 29.3.1, SVG Export Plug-In . SVG Version: 2.1.0 Build 151)  -->
  <defs>
    <style>
      .st0 {
        fill-rule: evenodd;
      }
    </style>
  </defs>
  <path class="st0" d="M73.03,16.71c-2.77-3.79-5.43-7.27-7.75-10.23-.64-.82-1.88-.82-2.52,0-2.33,2.96-5,6.46-7.78,10.27-20.05,4.34-35.14,22.74-35.14,44.17v38.15c0,1.66.84,3.21,2.24,4.11,4.87,3.13,16.81,10.34,27.16,12.91.92.23,1.82-.46,1.82-1.41v-27.19c0-4.96-2.54-9.59-6.73-12.25l-.5-.32c-6.02-3.83-9.67-10.48-9.67-17.62h0c0-.66.64-1.1,1.25-.88l27.06,10.06c1,.37,2.09.37,3.09-.01l27.06-10.3c.6-.23,1.25.22,1.25.86,0,7.14-3.65,13.79-9.68,17.63l-.5.32c-4.19,2.66-6.73,7.28-6.73,12.25v27.46c0,.95.89,1.64,1.81,1.42,10.35-2.57,22.3-9.79,27.16-12.92,1.4-.9,2.24-2.45,2.24-4.11v-39.02c0-21.35-15.08-39.16-35.14-43.34Z"/>
</svg>