<?xml version="1.0" encoding="UTF-8"?>
<svg id="Layer_1" xmlns="http://www.w3.org/2000/svg" version="1.1" viewBox="0 0 128 128">
  <!-- Generator: Adobe Illustrator 29.3.1, SVG Export Plug-In . SVG Version: 2.1.0 Build 151)  -->
  <defs>
    <style>
      .st0 {
        fill-rule: evenodd;
      }
    </style>
  </defs>
  <path class="st0" d="M65.27,14.78c-14.38,0-25.5,7.25-30.5,19.89-.05.13-.11.25-.16.37l-.29.68h.03c-.32.88-.96,2.74-1.5,5.05-.12.5,0,1.02.3,1.41,3.04,3.91,9.23,8.92,17.51,11.26.26.07.54,0,.73-.21.19-.2.24-.49.14-.75-1.53-4.01-1.74-7.43-1.65-9.59.46-9.8,6.2-16.39,14.27-16.39,6.98,0,11.32,4.67,11.32,12.18,0,6.48-2.83,11.36-9.78,16.84-5.45,4.31-8.13,7.41-9.27,10.69-1.26,3.64-1.36,6.61-.45,13.22.07.49.49.86.98.86h13.12c.55,0,.99-.44.99-.99v-3.42c.23-3.64.8-5.82,2.02-7.78,1.05-1.74,3.21-3.68,7.24-6.5,10.7-7.51,14.86-13.88,14.86-22.69,0-14.66-11.75-24.14-29.92-24.14ZM64.21,86.38c-.37-.36-.96-.36-1.32,0l-12.86,12.63c-.37.36-.37.94,0,1.3l12.86,12.63c.37.36.96.36,1.32,0l12.86-12.63c.37-.36.37-.94,0-1.3l-12.86-12.63Z"/>
</svg>