<?xml version="1.0" encoding="UTF-8"?>
<svg id="Layer_1" xmlns="http://www.w3.org/2000/svg" version="1.1" viewBox="0 0 128 128">
  <!-- Generator: Adobe Illustrator 29.3.1, SVG Export Plug-In . SVG Version: 2.1.0 Build 151)  -->
  <defs>
    <style>
      .st0 {
        fill-rule: evenodd;
      }
    </style>
  </defs>
  <path class="st0" d="M114.48,57.31c-6.8-6.18-27.48-24.49-48.38-38.2-1.27-.84-2.91-.84-4.19,0-20.9,13.71-41.59,32.03-48.38,38.2-1.18,1.07-1.05,3,.27,3.89l9.29,5.92v38.82c0,1.99,1.61,3.6,3.6,3.6h21c1.45,0,2.62-1.17,2.62-2.62v-29.31c0-.94.76-1.7,1.7-1.7h23.99c.94,0,1.7.76,1.7,1.7v29.31c0,1.45,1.17,2.62,2.62,2.62h21c1.99,0,3.6-1.61,3.6-3.6v-37.95l9.29-6.78c1.32-.89,1.45-2.82.27-3.89Z"/>
</svg>