<?xml version="1.0" encoding="UTF-8"?>
<svg id="Layer_1" xmlns="http://www.w3.org/2000/svg" version="1.1" viewBox="0 0 128 128">
  <!-- Generator: Adobe Illustrator 29.3.1, SVG Export Plug-In . SVG Version: 2.1.0 Build 151)  -->
  <defs>
    <style>
      .st0 {
        fill-rule: evenodd;
      }
    </style>
  </defs>
  <path class="st0" d="M63.19,46.4c.43.42,1.12.42,1.55,0l15.03-14.77c.43-.42.43-1.1,0-1.52l-15.03-14.77c-.43-.42-1.12-.42-1.55,0l-15.03,14.77c-.43.42-.43,1.1,0,1.52l15.03,14.77ZM85.09,109.13l-10.43-9.6v-36.87l6.89-6.77c.69-.68.2-1.84-.77-1.84h-33.53c-.98,0-1.46,1.16-.77,1.84l6.8,6.68v36.95l-10.37,9.6c-.69.68-.2,1.84.77,1.84h40.64c.98,0,1.46-1.16.77-1.84Z"/>
</svg>