<?xml version="1.0" encoding="UTF-8"?>
<svg id="Layer_1" xmlns="http://www.w3.org/2000/svg" version="1.1" viewBox="0 0 128 128">
  <!-- Generator: Adobe Illustrator 29.3.1, SVG Export Plug-In . SVG Version: 2.1.0 Build 151)  -->
  <defs>
    <style>
      .st0 {
        fill-rule: evenodd;
      }
    </style>
  </defs>
  <path class="st0" d="M115.01,32.07l-11.22-11.21c-11.12-11.12-29.26-11.02-40.5.23-9.38,9.38-10.98,23.53-4.81,34.43l-7.83,7.83c-1.03,1.03-1.03,2.69,0,3.72l17.04,17.04h0s2.09,2.09,2.09,2.09c1.03,1.03,2.7,1.03,3.73,0l8.12-8.12c10.71,5.34,24.14,3.51,33.15-5.51,11.25-11.25,11.35-29.38.23-40.5ZM106.94,63.57c-5.9,6.1-15.79,6.48-22.13.84-2.06-1.84-3.52-4.07-4.39-6.47-.42-1.16-1.34-2.08-2.5-2.5-2.4-.87-4.63-2.32-6.47-4.39-5.64-6.34-5.26-16.22.84-22.13,6.26-6.06,16.25-6,22.43.19,1.7,1.7,2.93,3.7,3.7,5.83.42,1.15,1.34,2.07,2.49,2.49,2.13.77,4.12,2,5.83,3.7,6.18,6.18,6.25,16.17.19,22.43ZM42.02,78.18l-15.15-15.14c-1.09-1.09-2.87-1.09-3.96,0l-17.8,17.79c-.54.54-.54,1.41,0,1.94l7.28,7.28c.54.54,1.41.54,1.94,0l6.71-6.71,7.91,7.9-7.61,7.61c-1.03,1.03-1.03,2.7,0,3.73l12.07,12.06c1.03,1.03,2.7,1.03,3.73,0l26.91-26.9-15.79-15.79-6.23,6.23Z"/>
</svg>