<?xml version="1.0" encoding="UTF-8"?>
<svg id="Layer_1" xmlns="http://www.w3.org/2000/svg" version="1.1" viewBox="0 0 128 128">
  <!-- Generator: Adobe Illustrator 29.3.1, SVG Export Plug-In . SVG Version: 2.1.0 Build 151)  -->
  <defs>
    <style>
      .st0 {
        fill-rule: evenodd;
      }
    </style>
  </defs>
  <path class="st0" d="M37.34,46.75c.39.79,1.31,1.17,2.15.89l5.27-1.76c.53-.18.94-.59,1.12-1.12l1.76-5.27c.28-.84-.1-1.75-.89-2.15l-14.19-7.08c-1.47-.74-3.04.83-2.3,2.3l7.08,14.19ZM82.12,44.76c.18.53.59.94,1.12,1.12l5.27,1.76c.84.28,1.75-.1,2.15-.89l7.08-14.19c.74-1.47-.83-3.04-2.3-2.3l-14.19,7.08c-.79.39-1.17,1.31-.89,2.15l1.76,5.27ZM90.66,81.25c-.39-.79-1.31-1.17-2.15-.89l-5.27,1.76c-.53.18-.94.59-1.12,1.12l-1.76,5.27c-.28.84.1,1.75.89,2.15l14.19,7.08c1.47.74,3.04-.83,2.3-2.3l-7.08-14.19ZM45.88,83.24c-.18-.53-.59-.94-1.12-1.12l-5.27-1.76c-.84-.28-1.75.1-2.15.89l-7.08,14.19c-.74,1.47.83,3.04,2.3,2.3l14.19-7.08c.79-.39,1.17-1.31.89-2.15l-1.76-5.27ZM115.83,62.37l-36.79-12.29c-.53-.18-.94-.59-1.12-1.12l-12.29-36.79c-.52-1.56-2.73-1.56-3.26,0l-12.29,36.79c-.18.53-.59.94-1.12,1.12l-36.79,12.29c-1.56.52-1.56,2.73,0,3.26l36.79,12.29c.53.18.94.59,1.12,1.12l12.29,36.79c.52,1.56,2.73,1.56,3.26,0l12.29-36.79c.18-.53.59-.94,1.12-1.12l36.79-12.29c1.56-.52,1.56-2.73,0-3.26ZM64,71.99c-4.41,0-7.99-3.58-7.99-7.99s3.58-7.99,7.99-7.99,7.99,3.58,7.99,7.99-3.58,7.99-7.99,7.99Z"/>
</svg>