<?xml version="1.0" encoding="UTF-8"?>
<svg id="Layer_1" xmlns="http://www.w3.org/2000/svg" version="1.1" viewBox="0 0 128 128">
  <!-- Generator: Adobe Illustrator 29.3.1, SVG Export Plug-In . SVG Version: 2.1.0 Build 151)  -->
  <defs>
    <style>
      .st0 {
        fill-rule: evenodd;
      }
    </style>
  </defs>
  <path class="st0" d="M103.46,59.17H24.54c-.68,0-1.24.55-1.24,1.24v6.51c0,.47.12.93.38,1.33.72,1.08,1.34,2.65,1.36,4.84v13.8c0,1.54.33,3.06,1,4.45,2.65,5.47,11.46,18.77,36.32,25.45,1.06.28,2.2.29,3.26,0,24.82-6.67,33.64-19.94,36.31-25.43.68-1.4,1.01-2.93,1.01-4.48v-13.74c0-2.23.64-3.82,1.36-4.92.26-.39.38-.86.38-1.33v-6.5c0-.68-.55-1.24-1.24-1.24ZM70.73,96.29c.1.39-.2.77-.61.77h-12.92c-.4,0-.7-.38-.61-.77l2.66-10.77c-2.07-1.41-3.44-3.79-3.44-6.49,0-4.33,3.51-7.84,7.84-7.84s7.84,3.51,7.84,7.84c0,2.7-1.36,5.08-3.44,6.49l2.66,10.77ZM38.88,51.28h10.08c.6,0,1.09-.49,1.09-1.09v-12.52c0-7.54,5.8-14.04,13.33-14.39,8.05-.38,14.69,6.03,14.69,13.99v12.92c0,.6.49,1.09,1.09,1.09h10.08c.6,0,1.09-.49,1.09-1.09v-12.92c0-14.34-11.49-25.99-25.76-26.27-14.73-.28-26.78,12.13-26.78,26.86v12.33c0,.6.49,1.09,1.09,1.09Z"/>
</svg>