<?xml version="1.0" encoding="UTF-8"?>
<svg id="Layer_1" xmlns="http://www.w3.org/2000/svg" version="1.1" viewBox="0 0 128 128">
  <!-- Generator: Adobe Illustrator 29.3.1, SVG Export Plug-In . SVG Version: 2.1.0 Build 151)  -->
  <defs>
    <style>
      .st0 {
        fill-rule: evenodd;
      }
    </style>
  </defs>
  <path class="st0" d="M105.27,26.06H22.73c-2.04,0-3.7,1.66-3.7,3.7v9.25c0,2.04,1.66,3.7,3.7,3.7h82.53c2.04,0,3.7-1.66,3.7-3.7v-9.25c0-2.04-1.66-3.7-3.7-3.7ZM105.27,55.67H22.73c-2.04,0-3.7,1.66-3.7,3.7v9.25c0,2.04,1.66,3.7,3.7,3.7h82.53c2.04,0,3.7-1.66,3.7-3.7v-9.25c0-2.04-1.66-3.7-3.7-3.7ZM105.27,85.28H22.73c-2.04,0-3.7,1.66-3.7,3.7v9.25c0,2.04,1.66,3.7,3.7,3.7h82.53c2.04,0,3.7-1.66,3.7-3.7v-9.25c0-2.04-1.66-3.7-3.7-3.7Z"/>
</svg>