<?xml version="1.0" encoding="UTF-8"?>
<svg id="Layer_1" xmlns="http://www.w3.org/2000/svg" version="1.1" viewBox="0 0 128 128">
  <!-- Generator: Adobe Illustrator 29.3.1, SVG Export Plug-In . SVG Version: 2.1.0 Build 151)  -->
  <defs>
    <style>
      .st0 {
        fill-rule: evenodd;
      }
    </style>
  </defs>
  <path class="st0" d="M89.83,20.73l-22.75,6.97c-3.28,1-5.5,3.9-5.5,7.16v2.38c-.01.14-.04.28-.04.43v18.52l33.46-33.46c-.93-1.69-3.07-2.65-5.17-2ZM28.65,89.08l13.73-13.73c-7.38,2.1-12.84,7.36-13.73,13.73ZM109.63,18.37c-1.47-1.47-3.85-1.47-5.32,0L18.37,104.31c-1.47,1.47-1.47,3.85,0,5.32,1.47,1.47,3.85,1.47,5.32,0L109.63,23.69c1.47-1.47,1.47-3.85,0-5.32ZM61.54,77.38c-.14-.08-.29-.15-.43-.22l-25.88,25.88c3.74,2.75,8.75,4.44,14.26,4.44,11.55,0,20.92-7.37,20.98-16.48h.02v-23.22l-8.95,8.95v.65Z"/>
</svg>