<?xml version="1.0" encoding="UTF-8"?>
<svg id="Layer_1" xmlns="http://www.w3.org/2000/svg" version="1.1" viewBox="0 0 128 128">
  <!-- Generator: Adobe Illustrator 29.3.1, SVG Export Plug-In . SVG Version: 2.1.0 Build 151)  -->
  <defs>
    <style>
      .st0 {
        fill-rule: evenodd;
      }
    </style>
  </defs>
  <path class="st0" d="M110.61,43.87l-26.27-26.41c-2.63-2.64-7.01-2.09-8.88,1.11-1.89,3.22-3.53,6.14-4.93,8.68-1.8,3.26-2.31,6.95-1.67,10.45-5.56-2.55-12.11-2.43-17.66.66-4.8,2.67-10.72,6.09-17.38,10.15-2.16-1.58-3.87-2.46-5.32-2.79-3.29-.75-5.22,1.19-7.45,3.43-5.15,5.17-5.08,8.74,5.61,20.35,1.48,1.61,4.7,4.9,8.54,8.77-3.73,6.56-9.43,16.78-14.31,26.42-.76,1.5.84,3.1,2.34,2.33,9.61-4.92,19.8-10.65,26.32-14.4,4.94,4.91,8.68,8.62,8.68,8.62,11.55,10.74,15.09,10.81,20.24,5.64,2.23-2.24,4.16-4.18,3.41-7.49-.33-1.46-1.21-3.18-2.78-5.35,4.05-6.7,7.44-12.64,10.1-17.47,2.98-5.4,3.18-11.74.9-17.21,3.58.76,7.4.26,10.76-1.61,2.52-1.4,5.43-3.06,8.63-4.96,3.18-1.88,3.73-6.29,1.1-8.93Z"/>
</svg>