<?xml version="1.0" encoding="UTF-8"?>
<svg id="Layer_1" xmlns="http://www.w3.org/2000/svg" version="1.1" viewBox="0 0 128 128">
  <!-- Generator: Adobe Illustrator 29.3.1, SVG Export Plug-In . SVG Version: 2.1.0 Build 151)  -->
  <defs>
    <style>
      .st0 {
        fill-rule: evenodd;
      }
    </style>
  </defs>
  <path class="st0" d="M97.51,24.69c-14.17-4.23-39.6-8.63-49.66-10.3-2.49-.41-4.92.97-5.86,3.33l-14.81,37.21c-1.05,2.64-.51,5.64,1.42,7.72,7.61,8.24,23.73,20.96,23.73,20.96-2.63,8.96-5.88,19.77-8.15,27.27-1,3.29,2.63,6.06,5.51,4.21,17.4-11.17,38.58-29.11,46.22-35.72,1.79-1.55,2.13-4.18.76-6.11-4.56-6.44-13.32-15.25-13.32-15.25,4.57-5.81,12.5-18.04,17.11-25.28,1.92-3.01.44-7.01-2.97-8.03Z"/>
</svg>