<?xml version="1.0" encoding="UTF-8"?>
<svg id="Layer_1" xmlns="http://www.w3.org/2000/svg" version="1.1" viewBox="0 0 128 128">
  <!-- Generator: Adobe Illustrator 29.3.1, SVG Export Plug-In . SVG Version: 2.1.0 Build 151)  -->
  <defs>
    <style>
      .st0 {
        fill-rule: evenodd;
      }
    </style>
  </defs>
  <path class="st0" d="M114.71,42.96h-29.26l.25-19.5c0-.67-.54-1.23-1.21-1.23h-41.74c-.67,0-1.22.55-1.21,1.23l.49,37.53H13.29c-.7,0-1.26.6-1.21,1.3l3.1,42.35c.05.63.57,1.12,1.21,1.12h95.18c.64,0,1.18-.5,1.21-1.15l3.15-60.39c.04-.69-.52-1.27-1.21-1.27ZM31.86,97.99c-1.46,0-5.31-.66-7.57-1.08l.19-3.81c2.35.19,7.1.28,7.94-.09,1.03-.47,2.3-2.11,2.3-4.37,0-1.83-.66-2.87-1.88-2.87h-3.9l.14-3.24c3.85-1.08,5.4-4.04,5.4-6.44,0-1.55-.42-2.44-1.32-2.44-.47,0-2.4.61-4.65,1.36l-.52,4.18h-3.24l-.28-8.27c3.29-.56,7.52-1.32,9.59-1.32,4.32,0,7.57,1.97,7.57,6.02,0,2.77-1.93,4.98-4.37,6.63l-.05.56c3.15.42,5.31,2.77,5.31,5.59,0,4-4.42,9.59-10.67,9.59ZM73.47,58.26h-17.34v-3.24l5.08-.89-.05-17.48-5.41.42v-3.85l9.73-2.87,3.38,1.6v22.37l4.65.85-.05,3.1ZM106.24,80.04h-19.83l-.42-2.77,9.59-13.44c1.55-2.16,2.07-3.57,2.07-4.65,0-1.41-.47-2.59-1.79-2.59-.42,0-2.44.61-4.37,1.32l-.61,4.79h-3.48l-.14-8.98c3.48-.75,7.05-1.36,9.87-1.36,4.98,0,8.18,1.97,8.18,6.49,0,1.93-.85,4.14-2.87,7.14l-5.92,8.74v.47h5.92l.75-4.23h3.29l-.23,9.07Z"/>
</svg>