<?xml version="1.0" encoding="UTF-8"?>
<svg id="Layer_1" xmlns="http://www.w3.org/2000/svg" version="1.1" viewBox="0 0 128 128">
  <!-- Generator: Adobe Illustrator 29.3.1, SVG Export Plug-In . SVG Version: 2.1.0 Build 151)  -->
  <defs>
    <style>
      .st0 {
        fill-rule: evenodd;
      }
    </style>
  </defs>
  <path class="st0" d="M70.61,35.93c.07.66.18,1.32.33,1.98.74,4.26,3.05,8.6,6.84,12.4,3.81,3.82,8.15,6.14,12.41,6.87.64.14,1.28.25,1.92.32,4.62.49,8.8-1,12.09-4.3,3.29-3.3,4.77-7.49,4.29-12.13-.06-.6-.17-1.21-.3-1.82-.7-4.31-3.02-8.71-6.87-12.56-3.85-3.86-8.24-6.19-12.54-6.89-.6-.13-1.2-.24-1.8-.3-.57-.06-1.13-.09-1.69-.09-3.95,0-7.51,1.5-10.4,4.39-3.29,3.3-4.77,7.49-4.29,12.13ZM109.91,58.94c-4.4,4.41-10.05,6.76-16.12,6.76-.83,0-1.67-.04-2.51-.13-6.64-.7-13.37-4.17-18.95-9.77-5.58-5.6-9.04-12.36-9.74-19.02-.74-7.05,1.61-13.69,6.61-18.7,1.28-1.28,2.66-2.39,4.13-3.31-6,.08-11.68,2.37-16.45,7.16-1.93,1.93-3.43,4.07-4.53,6.35-9.05.58-17.86,4.5-25.28,11.94-16.95,17.01-15.58,41.36,2,59,17.57,17.63,41.84,19.01,58.79,2,7.42-7.44,11.32-16.29,11.9-25.37,2.27-1.11,4.4-2.62,6.33-4.55,4.48-4.5,6.71-10.09,6.86-16.09-.87,1.32-1.87,2.56-3.02,3.72ZM73.98,91.78c-10.46,10.5-25.44,9.65-36.29-1.24-10.85-10.89-11.69-25.92-1.23-36.42,4.34-4.36,9.46-6.75,14.74-7.29,1.83,6.34,5.73,12.78,11.53,18.59,5.8,5.82,12.21,9.73,18.53,11.57-.54,5.3-2.93,10.43-7.27,14.79Z"/>
</svg>