<?xml version="1.0" encoding="UTF-8"?>
<svg id="Layer_1" xmlns="http://www.w3.org/2000/svg" version="1.1" viewBox="0 0 128 128">
  <!-- Generator: Adobe Illustrator 29.3.1, SVG Export Plug-In . SVG Version: 2.1.0 Build 151)  -->
  <defs>
    <style>
      .st0 {
        fill-rule: evenodd;
      }
    </style>
  </defs>
  <path class="st0" d="M115.07,59.57l-6.42-19.77c-.59-1.82-2.36-3.05-4-2.75l-12.11,2.25c-3.4-3.71-7.53-6.74-12.15-8.88l-1.68-12.57c-.22-1.65-1.97-2.96-3.9-2.96h-21.06c-1.94,0-3.68,1.3-3.9,2.96l-1.68,12.58c-4.66,2.16-8.82,5.23-12.24,8.99l-12.51-2.32c-1.65-.31-3.43.93-4.02,2.76l-6.45,19.81c-.59,1.82.12,3.87,1.63,4.59l11.65,5.54c.59,4.92,2.1,9.57,4.37,13.74l-6.29,11.61c-.8,1.47-.15,3.56,1.43,4.7l17.12,12.41c1.58,1.14,3.76,1.11,4.92-.1l8.92-9.35c2.46.5,5.01.76,7.61.76s5.05-.26,7.46-.73l8.66,9.09c1.15,1.21,3.33,1.24,4.9.1l17.04-12.38c1.57-1.14,2.21-3.22,1.42-4.69l-5.99-11.07c2.44-4.37,4.06-9.27,4.62-14.49l11.04-5.27c1.51-.72,2.21-2.76,1.62-4.58ZM64.28,82.33c-9.44,0-17.1-7.65-17.1-17.1s7.65-17.1,17.1-17.1,17.1,7.65,17.1,17.1-7.65,17.1-17.1,17.1Z"/>
</svg>