<?xml version="1.0" encoding="UTF-8"?>
<svg id="Layer_1" xmlns="http://www.w3.org/2000/svg" version="1.1" viewBox="0 0 128 128">
  <!-- Generator: Adobe Illustrator 29.3.1, SVG Export Plug-In . SVG Version: 2.1.0 Build 151)  -->
  <defs>
    <style>
      .st0 {
        fill-rule: evenodd;
      }
    </style>
  </defs>
  <path class="st0" d="M81.68,44.19c-.3-.05-.62-.1-.95-.15l-.26-.05c-.08-.02-8.2-1.59-15.38-2.71-.37-.06-.75-.09-1.13-.09s-.75.03-1.13.09c-7.18,1.13-15.3,2.7-15.38,2.71l-.26.05c-.33.05-.65.1-.95.15-1.65.29-1.99,1.95-2.06,2.65-.28,2.77-.61,6.75-.61,11.79,0,8.44,4.1,14.77,11.25,19.76,2.11,1.47,3.99,2.62,5.6,3.4,2.15,1.05,3.2,1.17,3.55,1.17s1.39-.11,3.55-1.17c1.61-.79,3.49-1.93,5.6-3.4,7.15-4.99,11.25-11.32,11.25-19.76,0-5.04-.33-9.01-.61-11.79-.07-.7-.41-2.36-2.06-2.65ZM109.79,29.87c-.16-1.62-.96-5.46-4.77-6.14-.68-.12-1.43-.24-2.2-.36-.2-.03-.41-.07-.61-.11-.19-.04-18.99-3.68-35.61-6.29-.86-.14-1.74-.2-2.61-.2s-1.75.07-2.61.2c-16.62,2.61-35.42,6.25-35.61,6.29-.2.04-.4.07-.61.1-.77.12-1.51.24-2.2.36-3.81.67-4.6,4.52-4.77,6.14-.65,6.42-1.42,13.33-1.42,24.99,0,19.55,9.49,34.21,26.04,45.77,4.88,3.41,9.24,6.06,12.96,7.88,4.99,2.44,7.41,2.7,8.21,2.7s3.23-.26,8.21-2.71c3.72-1.82,8.08-4.47,12.96-7.88,16.55-11.56,26.04-26.22,26.04-45.77,0-11.66-.77-18.58-1.42-24.99ZM77.23,85.73c-3.05,2.13-5.78,3.79-8.11,4.93-3.12,1.53-4.64,1.69-5.14,1.69s-2.02-.16-5.14-1.69c-2.33-1.14-5.06-2.8-8.11-4.93-10.36-7.24-16.31-16.42-16.31-28.66,0-7.3.48-13.07.89-17.09.1-1.02.6-3.42,2.99-3.84.43-.08.89-.15,1.38-.22.13-.02.25-.04.38-.07.12-.02,11.89-2.3,22.3-3.94.54-.08,1.09-.13,1.63-.13s1.09.04,1.63.13c10.4,1.63,22.18,3.91,22.3,3.94.13.02.25.05.38.07.48.07.95.15,1.38.22,2.39.42,2.88,2.83,2.99,3.84.41,4.02.89,9.79.89,17.09,0,12.24-5.94,21.42-16.3,28.66Z"/>
</svg>