<?xml version="1.0" encoding="UTF-8"?>
<svg id="Layer_1" xmlns="http://www.w3.org/2000/svg" version="1.1" viewBox="0 0 128 128">
  <!-- Generator: Adobe Illustrator 29.3.1, SVG Export Plug-In . SVG Version: 2.1.0 Build 151)  -->
  <defs>
    <style>
      .st0 {
        fill-rule: evenodd;
      }
    </style>
  </defs>
  <path class="st0" d="M124.65,49.68c-18.77-16.82-33.42-23.42-38.76-25.46-1.15-.44-2.41.15-2.87,1.3-4.76,11.95-19.02,11.03-19.02,11.03,0,0-14.26.92-19.02-11.03-.45-1.14-1.72-1.74-2.87-1.3-5.34,2.04-19.99,8.64-38.76,25.46-.99.88-1.09,2.4-.24,3.41l13.63,16.3c.74.89,2,1.15,3.03.63l11.24-5.6.12.08-2.85,35.5c-.16,2.04,1.31,3.85,3.35,4.09,9.37,1.1,35.64,3.48,64.7,0,2.03-.24,3.52-2.04,3.36-4.09l-2.85-35.49.12-.08,11.24,5.6c1.04.52,2.29.25,3.03-.63l13.63-16.3c.85-1.02.75-2.53-.24-3.41Z"/>
</svg>