<?xml version="1.0" encoding="UTF-8"?>
<svg id="Layer_1" xmlns="http://www.w3.org/2000/svg" version="1.1" viewBox="0 0 128 128">
  <!-- Generator: Adobe Illustrator 29.3.1, SVG Export Plug-In . SVG Version: 2.1.0 Build 151)  -->
  <defs>
    <style>
      .st0 {
        fill-rule: evenodd;
      }
    </style>
  </defs>
  <path class="st0" d="M64,17.82c-30.56,0-49.44,21.29-49.44,43.89,0,15.72,5.05,25.89,18.11,31.25.95,3.38,2.03,6.65,3.43,9.82,1.49,3.38,4.74,6.17,7.57,6.49,1.79.19,3.71.35,5.84.49.16.01.31-.05.41-.16.11-.11.16-.27.13-.42l-1.09-8.1c-.11-.81.13-1.64.66-2.27.53-.63,1.3-1,2.13-1.03,1.5-.06,2.77,1.01,2.97,2.52l1.25,9.26c.04.3.29.52.58.53,1.87.05,3.75.08,5.65.08,2.91,0,5.85-.06,8.79-.19.29-.01.53-.23.57-.52l1.23-9.16c.19-1.44,1.43-2.52,2.97-2.52h0c.82.03,1.59.4,2.12,1.03.53.63.77,1.45.66,2.27l-1.06,7.92c-.02.15.03.31.14.42.11.11.26.17.41.16,2.46-.18,4.62-.36,6.61-.55,2.56-.28,6.54-2.76,8.51-6.28,1.8-3.2,2.91-6.54,3.73-10,12.52-5.42,16.55-15.54,16.55-31.03,0-22.61-19.66-43.89-49.44-43.89ZM42.67,85.18c-8.42,0-15.24-6.77-15.24-15.12s6.82-15.12,15.24-15.12,15.24,6.77,15.24,15.12-6.82,15.12-15.24,15.12ZM67.54,90.64h-7.08c-2.01,0-3.3-1.76-2.38-3.23l5.42-7.43c.25-.34.75-.34.99,0l5.42,7.43c.92,1.47-.37,3.23-2.38,3.23ZM85.45,85.18c-8.35,0-15.12-6.77-15.12-15.12s6.77-15.12,15.12-15.12,15.12,6.77,15.12,15.12-6.77,15.12-15.12,15.12Z"/>
</svg>