<?xml version="1.0" encoding="UTF-8"?>
<svg id="Layer_1" xmlns="http://www.w3.org/2000/svg" version="1.1" viewBox="0 0 128 128">
  <!-- Generator: Adobe Illustrator 29.3.1, SVG Export Plug-In . SVG Version: 2.1.0 Build 151)  -->
  <defs>
    <style>
      .st0 {
        fill-rule: evenodd;
      }
    </style>
  </defs>
  <path class="st0" d="M118.16,62.71c-2.96-2.23-9.12-7.09-13.69-9.63-2-1.11-2.58-.94-4.09-.2-2.1,1.02-5.67,2.9-9.62,5.78l-5.87-1.37,7.08-18.78c.7-1.85-1.11-3.67-2.97-2.97l-18.43,6.95-1.23-5.25c2.78-3.81,4.58-7.31,5.68-9.41.85-1.62.98-2.43-.02-4.18-2.6-4.55-7.29-10.96-9.71-13.81-.86-1.01-1.67-1.22-2.59,0-2.23,2.96-7.09,9.11-9.63,13.69-1.11,2-.94,2.58-.2,4.09,1.02,2.1,2.9,5.67,5.78,9.62l-1.2,5.11-18.06-6.81c-1.85-.7-3.67,1.11-2.97,2.97l7.06,18.74-6.21,1.44c-3.95-2.86-7.53-4.74-9.63-5.75-1.52-.73-2.09-.91-4.1.2-4.59,2.53-10.75,7.36-13.72,9.58-1.22.91-1.01,1.72,0,2.57,2.86,2.4,9.27,7.07,13.83,9.65,1.76,1,2.57.86,4.19.02,2.1-1.09,5.6-2.88,9.42-5.65l5.73,1.33-6.59,17.47c-.7,1.85,1.11,3.67,2.97,2.97l17.81-6.72,1.48,6.35c-2.86,3.95-4.74,7.53-5.75,9.63-.73,1.52-.91,2.09.2,4.1,2.53,4.59,7.36,10.75,9.58,13.72.91,1.22,1.72,1.01,2.57,0,2.4-2.86,7.07-9.27,9.65-13.83,1-1.76.86-2.57.02-4.19-1.09-2.1-2.88-5.6-5.65-9.42l1.51-6.49,18.18,6.85c1.85.7,3.67-1.11,2.97-2.97l-6.6-17.51,5.39-1.26c3.81,2.78,7.31,4.58,9.41,5.68,1.62.85,2.43.98,4.18-.02,4.55-2.6,10.96-7.29,13.81-9.71,1.01-.86,1.22-1.67,0-2.59ZM78.68,64.14l-9.4,4.25-4.25,9.4c-.32.7-1.32.7-1.63,0l-4.25-9.4-9.4-4.25c-.7-.32-.7-1.32,0-1.63l9.4-4.25,4.25-9.4c.32-.7,1.32-.7,1.63,0l4.25,9.4,9.4,4.25c.7.32.7,1.32,0,1.63Z"/>
</svg>