<?xml version="1.0" encoding="UTF-8"?>
<svg id="Layer_1" xmlns="http://www.w3.org/2000/svg" version="1.1" viewBox="0 0 128 128">
  <!-- Generator: Adobe Illustrator 29.3.1, SVG Export Plug-In . SVG Version: 2.1.0 Build 151)  -->
  <defs>
    <style>
      .st0 {
        fill-rule: evenodd;
      }
    </style>
  </defs>
  <path class="st0" d="M111.59,30.1c-.47-2.03-2.51-3.3-4.57-2.82-.98.23-1.82.82-2.35,1.68-.53.86-.7,1.87-.47,2.86,2.47,10.56,3.72,21.47,3.72,32.42s-1.22,21.58-3.63,32.02c-.23.98-.06,2,.48,2.85.54.86,1.37,1.45,2.35,1.67h.04c.28.07.56.1.84.1,1.72,0,3.29-1.19,3.69-2.94,2.53-10.99,3.82-22.33,3.82-33.71s-1.32-23.02-3.92-34.14ZM93.88,37.8c-.99.18-1.86.73-2.44,1.56-.58.83-.8,1.83-.62,2.83,1.3,7.23,1.95,14.65,1.95,22.05s-.63,14.54-1.88,21.63c-.17.99.05,1.99.63,2.82.58.83,1.45,1.38,2.43,1.55h.04c.22.05.44.06.65.06,1.8,0,3.4-1.3,3.73-3.13,1.32-7.52,1.99-15.23,1.99-22.94s-.7-15.72-2.07-23.39c-.37-2.05-2.33-3.42-4.42-3.05ZM64.16,14.82c-2.26,0-4.42,1.04-6.42,2.93h0s-30.81,26.77-30.81,26.77h-7.02c-4.1,0-7.42,3.32-7.42,7.42v24.11c0,4.1,3.32,7.42,7.42,7.42h7.02l30.81,26.78h0c2.01,1.89,4.17,2.93,6.42,2.93,10.42,0,18.86-22.02,18.86-49.18s-8.44-49.18-18.86-49.18ZM60.19,75.6c.84,8.69,2.6,16.69,5.11,22.89.33.81.32,1.69-.02,2.49-.34.8-.97,1.42-1.78,1.74h-.03c-.39.17-.8.25-1.2.25-1.29,0-2.51-.77-3.02-2.03-3.96-9.78-6.14-22.89-6.14-36.94s2.18-27.15,6.14-36.92c.68-1.67,2.57-2.48,4.23-1.81.85.34,1.48.96,1.82,1.76.34.8.35,1.68.02,2.49-2.51,6.2-4.27,14.2-5.11,22.89,5.83.71,10.35,5.63,10.35,11.6s-4.52,10.89-10.35,11.6Z"/>
</svg>