<?xml version="1.0" encoding="UTF-8"?>
<svg id="Layer_1" xmlns="http://www.w3.org/2000/svg" version="1.1" viewBox="0 0 128 128">
  <!-- Generator: Adobe Illustrator 29.3.1, SVG Export Plug-In . SVG Version: 2.1.0 Build 151)  -->
  <defs>
    <style>
      .st0 {
        fill-rule: evenodd;
      }
    </style>
  </defs>
  <path class="st0" d="M34.13,83.09l36.64-36.64c1.03-7.23,2.67-13.85,4.91-19.38.68-1.67,2.57-2.48,4.23-1.81.85.34,1.48.96,1.82,1.76.34.8.35,1.68.02,2.49-1.06,2.61-1.97,5.55-2.75,8.71l13.13-13.13c-3.19-6.43-7.18-10.26-11.52-10.26-2.26,0-4.42,1.04-6.42,2.93h0s-30.81,26.77-30.81,26.77h-7.02c-4.1,0-7.42,3.32-7.42,7.42v24.11c0,3.31,2.19,6.09,5.19,7.04ZM111.91,16.09h0c-1.54-1.54-4.04-1.54-5.58,0L16.09,106.32c-1.54,1.54-1.54,4.04,0,5.58h0c1.54,1.54,4.04,1.54,5.58,0L111.91,21.68c1.54-1.54,1.54-4.04,0-5.58ZM83.28,55.49c2.28,2.13,3.71,5.15,3.71,8.51,0,5.97-4.52,10.89-10.35,11.6.84,8.69,2.6,16.69,5.11,22.89.33.81.32,1.69-.02,2.49-.34.8-.97,1.42-1.78,1.74h-.03c-.39.17-.8.25-1.2.25-1.29,0-2.51-.77-3.02-2.03-3.47-8.58-5.58-19.72-6.04-31.8l-19.88,19.88,24.43,21.23h0c2.01,1.89,4.17,2.93,6.42,2.93,10.42,0,18.86-22.02,18.86-49.18,0-8.14-.76-15.82-2.11-22.58l-14.08,14.08Z"/>
</svg>