<?xml version="1.0" encoding="UTF-8"?>
<svg id="Layer_1" xmlns="http://www.w3.org/2000/svg" version="1.1" viewBox="0 0 128 128">
  <!-- Generator: Adobe Illustrator 29.3.1, SVG Export Plug-In . SVG Version: 2.1.0 Build 151)  -->
  <defs>
    <style>
      .st0 {
        fill-rule: evenodd;
      }
    </style>
  </defs>
  <path class="st0" d="M107.95,47.09l-22.68-5.14c-1.19-.27-2.21-1.01-2.83-2.06l-11.9-19.98c-.65-1.09-1.56-2-2.65-2.65-3.61-2.15-8.29-.97-10.44,2.65l-11.9,19.98c-.62,1.05-1.65,1.79-2.83,2.06l-22.68,5.14c-1.24.28-2.38.86-3.33,1.7-3.16,2.77-3.48,7.58-.71,10.74l15.32,17.49c.8.92,1.19,2.12,1.08,3.33l-2.12,23.15c-.12,1.26.09,2.53.59,3.7,1.66,3.86,6.14,5.65,10,3.99l21.37-9.17c1.12-.48,2.38-.48,3.5,0l21.37,9.17c1.16.5,2.43.7,3.7.58,4.19-.38,7.27-4.09,6.89-8.27l-2.12-23.15c-.11-1.21.28-2.42,1.08-3.33l15.32-17.49c.83-.95,1.42-2.1,1.7-3.33.93-4.1-1.64-8.18-5.74-9.11Z"/>
</svg>