<?xml version="1.0" encoding="UTF-8"?>
<svg id="Layer_1" xmlns="http://www.w3.org/2000/svg" version="1.1" viewBox="0 0 128 128">
  <!-- Generator: Adobe Illustrator 29.3.1, SVG Export Plug-In . SVG Version: 2.1.0 Build 151)  -->
  <defs>
    <style>
      .st0 {
        fill-rule: evenodd;
      }
    </style>
  </defs>
  <path class="st0" d="M73.42,41.59c0-.75-.61-1.36-1.36-1.36h-16.11c-.75,0-1.36.61-1.36,1.36v13h-13c-.75,0-1.36.61-1.36,1.36v16.11c0,.75.61,1.36,1.36,1.36h13v13c0,.75.61,1.36,1.36,1.36h16.11c.75,0,1.36-.61,1.36-1.36v-13h13c.75,0,1.36-.61,1.36-1.36v-16.11c0-.75-.61-1.36-1.36-1.36h-13v-13ZM115.76,62.74c-14.17-19.55-30.79-35.96-50.5-50.32-.74-.54-1.76-.54-2.5,0-19.69,14.5-36.28,30.53-50.52,50.32-.53.74-.53,1.74,0,2.48,13.68,18.82,30.89,36.18,50.53,50.36.74.53,1.74.53,2.48,0,19.11-13.8,36.17-30.78,50.52-50.35.54-.74.54-1.75,0-2.49ZM64,100.05c-14.13-10.05-26.46-22.51-36.14-36.02,10.11-14.26,21.97-25.69,36.14-36.02,14.19,10.21,26.07,21.93,36.14,36.01-10.18,14.08-22.4,26.24-36.14,36.02Z"/>
</svg>