<?xml version="1.0" encoding="UTF-8"?>
<svg id="Layer_1" xmlns="http://www.w3.org/2000/svg" version="1.1" viewBox="0 0 128 128">
  <!-- Generator: Adobe Illustrator 29.3.1, SVG Export Plug-In . SVG Version: 2.1.0 Build 151)  -->
  <defs>
    <style>
      .st0 {
        fill-rule: evenodd;
      }
    </style>
  </defs>
  <path class="st0" d="M40.18,93.16c.42,0,.76-.34.76-.76v-23.97c0-.42-.34-.76-.76-.76h-14.65c-.39,0-.72.3-.75.7l-1.8,23.97c-.03.44.31.81.76.81h16.44ZM109.09,97.38H18.91c-.52,0-.94.42-.94.94v12.22c0,.52.42.93.93.93h90.19c.51,0,.93-.42.93-.93v-12.22c0-.51-.42-.93-.93-.93ZM111.92,46.83h-9.23c-1.54-7.7-6.85-14.78-14.52-21.35-.09-.08-.18-.16-.28-.24-13.75-11.62-34.04-11.62-47.79,0-.09.08-.19.16-.28.24-7.68,6.57-12.98,13.65-14.52,21.35h-9.23c-.66,0-1.14.62-.98,1.26l3.52,13.63c.18.71.82,1.2,1.55,1.2h19.8c.53,0,.96-.43.96-.96v-10.54h46.12v10.54c0,.53.43.96.96.96h19.8c.73,0,1.37-.49,1.55-1.2l3.52-13.64c.16-.64-.32-1.26-.97-1.26ZM64,41.98c-1.8-3.41-4.58-6.2-7.99-7.99,3.41-1.8,6.2-4.58,7.99-7.99,1.8,3.41,4.58,6.2,7.99,7.99-3.41,1.8-6.2,4.58-7.99,7.99ZM103.53,93.16c.83,0,1.49-.71,1.43-1.55l-1.75-23.24c-.03-.39-.36-.7-.75-.7h-14.65c-.42,0-.76.34-.76.76v23.97c0,.42.34.75.75.75h15.72Z"/>
</svg>