<?xml version="1.0" encoding="UTF-8"?>
<svg id="Layer_1" xmlns="http://www.w3.org/2000/svg" version="1.1" viewBox="0 0 128 128">
  <!-- Generator: Adobe Illustrator 29.3.1, SVG Export Plug-In . SVG Version: 2.1.0 Build 151)  -->
  <defs>
    <style>
      .st0 {
        fill-rule: evenodd;
      }
    </style>
  </defs>
  <path class="st0" d="M64,47.06c-13.46,0-24.36,10.91-24.36,24.36s10.91,24.36,24.36,24.36,24.36-10.91,24.36-24.36-10.91-24.36-24.36-24.36ZM78.63,72.79c0,.59-.48,1.07-1.07,1.07h-17.37c-.59,0-1.07-.48-1.07-1.07v-19.81c0-.59.48-1.07,1.07-1.07h7.62c.59,0,1.07.48,1.07,1.07v11.13h8.69c.59,0,1.07.48,1.07,1.07v7.62ZM75.82,28.71c1.91-1.41,3.89-3.88,3.89-8.06,0-8-12.07-8.39-15.69-8.39h0s-.01,0-.01,0h-.01s0,0,0,0c-3.62,0-15.69.39-15.69,8.39,0,4.17,1.98,6.64,3.89,8.05-18.74,5.17-32.5,22.33-32.5,42.71,0,24.47,19.84,44.31,44.31,44.31s44.31-19.84,44.31-44.31c0-20.38-13.76-37.53-32.49-42.71ZM64,103.12c-17.51,0-31.7-14.19-31.7-31.7s14.19-31.7,31.7-31.7,31.7,14.19,31.7,31.7-14.19,31.7-31.7,31.7Z"/>
</svg>