<?xml version="1.0" encoding="UTF-8"?>
<svg id="Layer_1" xmlns="http://www.w3.org/2000/svg" version="1.1" viewBox="0 0 128 128">
  <!-- Generator: Adobe Illustrator 29.3.1, SVG Export Plug-In . SVG Version: 2.1.0 Build 151)  -->
  <defs>
    <style>
      .st0 {
        fill-rule: evenodd;
      }
    </style>
  </defs>
  <path class="st0" d="M23.58,70.24c1.69-1.68,2.54-4.01,2.33-6.4-.16-1.86-1.05-3.69-2.5-5.14l-5.49-5.5c-.09-.09-.13-.19-.13-.32s.05-.23.13-.31l5.66-5.65c1.69-1.68,2.54-4.02,2.33-6.41-.16-1.86-1.05-3.68-2.5-5.13l-4.43-4.44c-.71-.72-1.66-1.11-2.68-1.11h0c-1.01,0-1.96.4-2.68,1.11-1.47,1.48-1.47,3.88,0,5.35l4.63,4.63c.08.09.13.19.13.32s-.04.23-.13.31l-5.66,5.65c-1.69,1.68-2.53,4.01-2.33,6.4.16,1.86,1.05,3.68,2.5,5.13l5.49,5.5c.09.08.13.19.13.31s-.05.23-.13.31l-5.67,5.65c-1.69,1.69-2.53,4.03-2.32,6.42.16,1.85,1.05,3.67,2.5,5.12l5.49,5.5c.08.09.13.19.13.32s-.04.23-.13.31l-4.62,4.6c-1.48,1.47-1.48,3.87-.01,5.35h0c.71.72,1.66,1.11,2.68,1.12h0c1.01,0,1.96-.39,2.67-1.1l4.61-4.6c1.69-1.68,2.54-4.01,2.33-6.4-.16-1.86-1.05-3.68-2.5-5.14l-5.49-5.5c-.08-.08-.13-.19-.13-.31s.05-.23.13-.31l5.66-5.65ZM115.44,81.88c1.68-1.69,2.52-4.02,2.31-6.41-.17-1.86-1.06-3.68-2.51-5.13l-5.48-5.47c-.09-.09-.13-.19-.13-.31s.05-.23.13-.32l5.68-5.68c1.68-1.68,2.52-4.02,2.31-6.4-.16-1.86-1.06-3.68-2.51-5.14l-5.48-5.47c-.09-.09-.13-.19-.13-.31s.05-.23.13-.32l4.62-4.63c1.47-1.47,1.47-3.88,0-5.35-.71-.72-1.66-1.11-2.68-1.11h0c-1.01,0-1.96.39-2.68,1.11l-4.62,4.63c-1.68,1.68-2.52,4.02-2.31,6.4.16,1.86,1.05,3.68,2.51,5.13l5.48,5.47c.09.09.13.19.13.31s-.04.23-.13.32l-5.68,5.68c-1.68,1.69-2.52,4.02-2.31,6.41.17,1.86,1.06,3.68,2.51,5.13l5.48,5.47c.09.09.13.2.13.31s-.04.23-.13.32l-5.68,5.68c-1.68,1.69-2.52,4.02-2.31,6.41.17,1.86,1.06,3.68,2.51,5.12l4.43,4.42c.71.71,1.66,1.1,2.67,1.1h.01c1.01,0,1.96-.4,2.67-1.12,1.47-1.48,1.46-3.88-.01-5.35l-4.61-4.6c-.09-.09-.13-.19-.13-.31s.05-.23.13-.32l5.68-5.68ZM85.45,17.31h-42.89c-5.26,0-9.52,4.27-9.52,9.54v74.3c0,5.27,4.26,9.54,9.52,9.54h42.89c5.26,0,9.52-4.27,9.52-9.54V26.85c0-5.27-4.26-9.54-9.52-9.54ZM87.39,98.21h-46.78V29.79h46.78v68.42Z"/>
</svg>