<?xml version="1.0" encoding="UTF-8"?>
<svg id="Layer_1" xmlns="http://www.w3.org/2000/svg" version="1.1" viewBox="0 0 128 128">
  <!-- Generator: Adobe Illustrator 29.3.1, SVG Export Plug-In . SVG Version: 2.1.0 Build 151)  -->
  <defs>
    <style>
      .st0 {
        fill-rule: evenodd;
      }
    </style>
  </defs>
  <path class="st0" d="M54.56,74.68h18.95c.52,0,.95-.4,1-.91l4.78-55.81c.05-.58-.41-1.08-1-1.08h-28.5c-.59,0-1.05.5-1,1.08l4.78,55.81c.04.52.48.91,1,.91ZM79.67,96.26l-14.82-14.82c-.47-.47-1.23-.47-1.7,0l-14.82,14.82c-.47.47-.47,1.23,0,1.7l14.82,14.82c.47.47,1.23.47,1.7,0l14.82-14.82c.47-.47.47-1.23,0-1.7Z"/>
</svg>